<?xml version="1.0" encoding="utf-8" standalone="yes"?>
<svg xmlns="http://www.w3.org/2000/svg" xmlns:xlink="http://www.w3.org/1999/xlink" version="1.1" width="15" height="15">
	<defs />
	<g transform="translate(0.17,0)">
		<g transform="translate(0.6666667,0.6666667)">
			<path d="M0,4.499948 C0,3.151106 0.7412508,1.871318 2.017212,1.01718 L2.017212,1.01718 C2.999645,0.359532 4.230688,0 5.500053,0 L5.500053,0 C6.769417,0 8.000461,0.359532 8.982894,1.01718 L8.982894,1.01718 C10.25885,1.871318 11.00011,3.151106 11.00011,4.499948 L11.00011,4.499948 C11.00011,5.848789 10.25885,7.128578 8.982894,7.982715 L8.982894,7.982715 C8.000461,8.640364 6.769417,8.999895 5.500053,8.999895 L5.500053,8.999895 C4.230688,8.999895 2.999645,8.640364 2.017212,7.982715 L2.017212,7.982715 C0.7412508,7.128578 0,5.848789 0,4.499948 Z" fill="#ffffff" fill-rule="evenodd" />
			<path d="M0,4.499948 C0,3.151106 0.7412508,1.871318 2.017212,1.01718 L2.017212,1.01718 C2.999645,0.359532 4.230688,0 5.500053,0 L5.500053,0 C6.769417,0 8.000461,0.359532 8.982894,1.01718 L8.982894,1.01718 C10.25885,1.871318 11.00011,3.151106 11.00011,4.499948 L11.00011,4.499948 C11.00011,5.848789 10.25885,7.128578 8.982894,7.982715 L8.982894,7.982715 C8.000461,8.640364 6.769417,8.999895 5.500053,8.999895 L5.500053,8.999895 C4.230688,8.999895 2.999645,8.640364 2.017212,7.982715 L2.017212,7.982715 C0.7412508,7.128578 0,5.848789 0,4.499948 Z" stroke-width="1.333333" stroke-miterlimit="13.33333" stroke="#000000" fill="none" fill-rule="evenodd" />
		</g>
	</g>
</svg>