<?xml version="1.0" encoding="utf-8" standalone="yes"?>
<svg xmlns="http://www.w3.org/2000/svg" xmlns:xlink="http://www.w3.org/1999/xlink" version="1.1" width="15" height="15">
	<defs />
	<g transform="translate(0.17,0)">
		<g transform="translate(0.6666667,0.6666667)">
			<path d="M0,4.499948 C0,3.22491 0.602133,2.008118 1.655176,1.155163 L1.655176,1.155163 C2.573034,0.4117068 3.765149,0 5,0 L5,0 C6.234851,0 7.426966,0.4117068 8.344824,1.155163 L8.344824,1.155163 C9.397868,2.008118 10,3.22491 10,4.499948 L10,4.499948 C10,5.774986 9.397868,6.991777 8.344824,7.844732 L8.344824,7.844732 C7.426966,8.588188 6.234851,8.999895 5,8.999895 L5,8.999895 C3.765149,8.999895 2.573034,8.588188 1.655176,7.844732 L1.655176,7.844732 C0.602133,6.991777 0,5.774986 0,4.499948 Z" fill="#4472c4" fill-rule="evenodd" />
			<path d="M0,4.499948 C0,3.22491 0.602133,2.008118 1.655176,1.155163 L1.655176,1.155163 C2.573034,0.4117068 3.765149,0 5,0 L5,0 C6.234851,0 7.426966,0.4117068 8.344824,1.155163 L8.344824,1.155163 C9.397868,2.008118 10,3.22491 10,4.499948 L10,4.499948 C10,5.774986 9.397868,6.991777 8.344824,7.844732 L8.344824,7.844732 C7.426966,8.588188 6.234851,8.999895 5,8.999895 L5,8.999895 C3.765149,8.999895 2.573034,8.588188 1.655176,7.844732 L1.655176,7.844732 C0.602133,6.991777 0,5.774986 0,4.499948 Z" stroke-width="1.333333" stroke-miterlimit="13.33333" stroke="#172c51" fill="none" fill-rule="evenodd" />
		</g>
	</g>
</svg>